<svg xmlns="http://www.w3.org/2000/svg" viewBox="0 0 320 320" role="img" aria-labelledby="title desc">
  <title id="title">Bricopro BP logo</title>
  <desc id="desc">White BP letters on a blue background with the original orange rectangular outline.</desc>
  <rect width="320" height="320" fill="#1f4f73"/>
  <rect x="40" y="88" width="240" height="144" fill="none" stroke="#ff9219" stroke-width="12"/>
  <path fill="#fff" d="M63 113h72c22 0 37 11 37 28 0 11-6 20-17 24 14 4 22 14 22 28 0 20-16 32-42 32H63V113Zm34 27v18h31c8 0 13-3 13-9 0-6-5-9-13-9H97Zm0 42v18h35c8 0 13-3 13-9 0-6-5-9-13-9H97Z"/>
  <path fill="#fff" d="M178 113h62c25 0 42 16 42 39 0 24-17 40-42 40h-27v33h-35V113Zm35 28v24h22c9 0 15-5 15-12 0-8-6-12-15-12h-22Z"/>
</svg>
